<?xml version="1.0" encoding="UTF-8" standalone="no"?>
<svg width="22px" height="22px" viewBox="0 0 22 22" version="1.1" xmlns="http://www.w3.org/2000/svg" xmlns:xlink="http://www.w3.org/1999/xlink" xmlns:sketch="http://www.bohemiancoding.com/sketch/ns">
    <!-- Generator: Sketch 3.3.3 (12081) - http://www.bohemiancoding.com/sketch -->
    <title>logo</title>
    <desc>Created with Sketch.</desc>
    <defs></defs>
    <g id="Style-Guide" stroke="none" stroke-width="1" fill="none" fill-rule="evenodd" sketch:type="MSPage">
        <g id="Account-Page---profile" sketch:type="MSArtboardGroup" transform="translate(-17.000000, -19.000000)">
            <g id="header" sketch:type="MSLayerGroup">
                <g id="header-logo_silhouette" sketch:type="MSShapeGroup">
                    <g id="logo" transform="translate(17.000000, 19.000000)">
                        <path d="M12.1481622,13.285027 C13.2897838,13.8897297 5.98162162,10.430973 0.0594594595,14.5996757 C2.16610811,14.6121622 3.67697297,15.0295676 3.93562162,15.3756216 C4.19427027,15.7198919 5.50535135,16.0267027 6.33124324,15.4023784 C7.15713514,14.7816216 11.6433514,13.0174595 12.1481622,13.285027" id="Fill-2" fill="#FFFFFF"></path>
                        <path d="M11.8324324,11.6368108 C13.114973,11.8027027 5.05762162,11.1337838 0.979891892,17.1201622 C2.95632432,16.3923784 4.51713514,16.2514595 4.88102703,16.4833514 C5.24491892,16.7134595 6.57918919,16.5386486 7.13216216,15.6663784 C7.68691892,14.7923243 11.266973,11.5636757 11.8324324,11.6368108" id="Fill-3" fill="#FFFFFF"></path>
                        <path d="M15.6693514,11.6689189 C14.4652973,10.6575135 9.35297297,10.7502703 7.9972973,11.6689189 C5.92632432,13.0691892 7.9972973,19.5907027 7.9972973,19.5907027 L8.00086486,19.5907027 C8.00443243,19.6245946 8.01335135,19.6567027 8.02405405,19.6888108 L8.42897297,20.8821622 L8.51994595,21.1586486 C8.82140541,22.0487568 9.31372973,22.0487568 9.61697297,21.1586486 L9.70972973,20.8821622 C9.70972973,20.8821622 9.92378378,20.2970811 10.1182162,20.0402162 C10.3144324,19.7833514 13.5537838,19.7048649 13.6608108,20.0402162 C13.7714054,20.3773514 14.0710811,21.1586486 14.0710811,21.1586486 C14.3725405,22.0487568 14.8648649,22.0487568 15.1663243,21.1586486 L15.2590811,20.8821622 L15.6497297,19.6620541 C15.6568649,19.6388649 15.664,19.6156757 15.6675676,19.5907027 L15.6693514,19.5907027 C15.6693514,19.5907027 17.512,13.2083243 15.6693514,11.6689189" id="Fill-4" fill="#FFFFFF"></path>
                        <path d="M14.2762162,14.9118378 C14.2762162,15.9428649 12.8777297,16.8276216 12.1749189,17.2075676 C11.9305405,17.3413514 11.6362162,17.3413514 11.3900541,17.2075676 C10.689027,16.8276216 9.29054054,15.9428649 9.29054054,14.9118378 C9.29054054,13.5365405 9.79535135,12.4198919 11.7842703,12.4198919 C13.8784324,12.4198919 14.2762162,13.5365405 14.2762162,14.9118378" id="Fill-5" fill="#A688E0"></path>
                        <path d="M11.0422162,17.1683243 C11.1189189,17.1112432 11.398973,16.9185946 11.7236216,16.6956216 C12.3372432,16.2746486 13.6269189,15.2810811 13.8374054,15.1080541 L13.7125405,14.9439459 C13.5074054,15.1098378 12.2230811,16.1016216 11.6112432,16.5208108 C11.2723243,16.7527027 11.0047568,16.9382162 10.9227027,16.9970811 L11.0422162,17.1683243" id="Fill-6" fill="#FFFFFF"></path>
                        <path d="M9.89345946,16.6064324 C9.97016216,16.5493514 10.2502162,16.3567027 10.5748649,16.1337297 C11.1884865,15.7127568 12.0286486,15.1365946 12.2409189,14.9653514 L12.1142703,14.7994595 C11.9109189,14.9671351 11.0743243,15.5397297 10.4642703,15.9589189 C10.1235676,16.1908108 9.856,16.3763243 9.77572973,16.4351892 L9.89345946,16.6064324" id="Fill-7" fill="#FFFFFF"></path>
                        <path d="M12.6654595,17.1683243 C12.5887568,17.1112432 12.3087027,16.9185946 11.9840541,16.6956216 C11.3704324,16.2746486 10.0807568,15.2810811 9.87027027,15.1080541 L9.99513514,14.9439459 C10.2002703,15.1098378 11.4845946,16.1016216 12.0946486,16.5208108 C12.4353514,16.7527027 12.7029189,16.9382162 12.7831892,16.9970811 L12.6654595,17.1683243" id="Fill-8" fill="#FFFFFF"></path>
                        <path d="M13.8142162,16.6064324 C13.7375135,16.5493514 13.4574595,16.3567027 13.1328108,16.1337297 C12.5191892,15.7127568 11.6772432,15.1365946 11.4667568,14.9653514 L11.5916216,14.7994595 C11.7967568,14.9671351 12.6333514,15.5397297 13.2434054,15.9589189 C13.5841081,16.1908108 13.8516757,16.3763243 13.9319459,16.4351892 L13.8142162,16.6064324" id="Fill-9" fill="#FFFFFF"></path>
                        <path d="M21.4274054,4.25908108 C19.9843243,2.20594595 15.466,0.484594595 11.8716757,0.609459459 C10.2466486,0.666540541 8.63410811,1.01616216 7.36940541,1.75286486 C5.92810811,0.573783784 3.68589189,-0.00951351351 3.48254054,0.386486486 C3.23459459,0.873459459 3.80005405,3.75962162 4.44221622,5.13313514 C3.99983784,6.03394595 3.69481081,7.46632432 3.71978378,8.90405405 C3.80540541,13.6203784 7.32481081,15.2668108 11.6665405,15.2668108 C16.1331351,15.2668108 19.6953514,13.5062162 19.6596757,8.90405405 C19.6507568,7.80881081 19.4277838,6.39248649 19.0924324,5.50059459 C20.3963784,5.11886486 21.6111351,4.51951351 21.4274054,4.25908108" id="Fill-10" fill="#FFFFFF"></path>
                        <path d="M19.1174054,13.9361081 C17.6796757,13.8522703 17.1195676,14.5158378 16.9072973,14.9243243 C16.7378378,15.1758378 16.6379459,15.4808649 16.6379459,15.8072973 C16.6379459,16.6795676 17.3461081,17.3859459 18.2183784,17.3859459 C18.6571892,17.3859459 19.0567568,17.2075676 19.3439459,16.915027 C19.3278919,16.9667568 19.3082703,17.0202703 19.2832973,17.0737838 C19.2654595,17.1058919 19.2422703,17.1558378 19.2315676,17.1736757 C19.2262162,17.1861622 19.2190811,17.1986486 19.2190811,17.1986486 C19.2012432,17.2325405 19.1727027,17.2646486 19.1530811,17.2914054 C19.1067027,17.3574054 19.0638919,17.402 19.0032432,17.4608649 C18.8819459,17.5678919 18.724973,17.6552973 18.5590811,17.7141622 C18.3931892,17.7712432 18.2183784,17.7997838 18.0489189,17.8069189 C17.9632973,17.8015676 17.8776757,17.8087027 17.7938378,17.7926486 C17.7545946,17.7872973 17.7135676,17.7819459 17.6725405,17.7783784 C17.6332973,17.7676757 17.5940541,17.7587568 17.5548108,17.7498378 C17.4763243,17.7355676 17.4031892,17.7052432 17.3318378,17.6820541 C17.2604865,17.6606486 17.1944865,17.6285405 17.1320541,17.5982162 C17.0000541,17.5447027 16.9162162,17.4840541 16.8305946,17.4412432 C16.7396216,17.3841622 16.167027,16.9899459 16.167027,16.9899459 C15.9404865,16.8240541 15.9761622,17.0827027 15.7745946,17.2896216 C15.5534054,17.5161622 15.5605405,17.8800541 15.7870811,18.1012432 L15.7870811,18.1012432 C15.7870811,18.1012432 15.8138378,18.1262162 15.8602162,18.1708108 C15.9101622,18.218973 15.969027,18.2814054 16.0707027,18.3705946 C16.1884324,18.4633514 16.3347027,18.5935676 16.5023784,18.6952432 C16.588,18.7505405 16.6771892,18.8111892 16.7824324,18.8629189 C16.8858919,18.9164324 16.9929189,18.9752973 17.116,19.0198919 C17.1748649,19.0448649 17.2372973,19.0698378 17.2997297,19.0948108 C17.3675135,19.1144324 17.4335135,19.1340541 17.5012973,19.1536757 C17.6368649,19.1982703 17.7849189,19.2178919 17.9365405,19.2464324 C18.2433514,19.2821081 18.5787027,19.2838919 18.9194054,19.2214595 C19.2618919,19.1608108 19.6115135,19.0377297 19.9450811,18.8343784 C20.0271351,18.7790811 20.110973,18.7327027 20.1894595,18.6631351 L20.308973,18.5668108 L20.4195676,18.4633514 C20.4463243,18.4365946 20.4659459,18.4223243 20.4980541,18.3866486 L20.6104324,18.2635676 C20.6889189,18.1743784 20.7352973,18.103027 20.7977297,18.0227568 C21.0242703,17.6981081 21.2258378,17.3199459 21.2704324,16.898973 C21.4916216,14.8351351 20.0271351,13.9896216 19.1174054,13.9361081" id="Fill-11" fill="#FFFFFF"></path>
                        <path d="M14.0496757,19.7209189 C14.0496757,19.9492432 13.0329189,20.1347568 11.7771351,20.1347568 C10.5231351,20.1347568 9.50637838,19.9492432 9.50637838,19.7209189 C9.50637838,19.4908108 10.5231351,19.3070811 11.7771351,19.3070811 C13.0329189,19.3070811 14.0496757,19.4908108 14.0496757,19.7209189" id="Fill-12" fill="#FFFFFF"></path>
                        <path d="M12.5013514,11.9043784 C12.5013514,12.1095135 12.2462703,12.2754054 11.9341081,12.2754054 C11.6201622,12.2754054 11.3650811,12.1095135 11.3650811,11.9043784 C11.3650811,11.6992432 11.6201622,11.6564324 11.9341081,11.6564324 C12.2462703,11.6564324 12.5013514,11.6992432 12.5013514,11.9043784" id="Fill-13" fill="#A688E0"></path>
                    </g>
                </g>
            </g>
        </g>
    </g>
</svg>